<svg width="109" height="100" viewBox="0 0 109 100" version="1.1" xmlns="http://www.w3.org/2000/svg" xmlns:xlink="http://www.w3.org/1999/xlink"><title>API Graphic</title><desc>Created with Sketch.</desc><defs><linearGradient x1="80.995%" y1="48.441%" x2="31.967%" y2="53.148%" id="linearGradient-1"><stop stop-color="#000" stop-opacity=".4" offset="0%"/><stop stop-color="#000" stop-opacity="0" offset="100%"/></linearGradient><rect id="path-2" x="13.181" y="49.114" width="5.07" height="5.063" rx="2.532"/><filter x="-29.6%" y="-29.6%" width="159.2%" height="159.3%" filterUnits="objectBoundingBox" id="filter-3"><feGaussianBlur stdDeviation=".5" in="SourceAlpha" result="shadowBlurInner1"/><feOffset dx="0" dy="2" in="shadowBlurInner1" result="shadowOffsetInner1"/><feComposite in="shadowOffsetInner1" in2="SourceAlpha" operator="arithmetic" k2="-1" k3="1" result="shadowInnerInner1"/><feColorMatrix values="0 0 0 0 0.062745098 0 0 0 0 0.062745098 0 0 0 0 0.101960784 0 0 0 1 0" type="matrix" in="shadowInnerInner1"/></filter></defs><g id="Responsive" stroke="none" stroke-width="1" fill="none" fill-rule="evenodd"><g id="Web-Home" transform="translate(-266.000000, -683.000000)"><g id="Features" transform="translate(150.000000, 683.000000)"><g id="Unified-API"><g id="API-Graphic" transform="translate(116.000000, 0.000000)"><g id="Browser" transform="translate(21.039535, 0.000000)"><rect id="Rectangle-132" fill="#5A5886" x="4.563" y="0" width="67.681" height="89.367" rx="2.781"/><path d="M0,37.721519 L4.5627907,37.721519 L4.5627907,72.6582278 L0,72.6582278 L0,37.721519 Z M4.5627907,9.87341772 L72.244186,9.87341772 L5.32325581,88.4810127 C4.90077519,88.0590717 4.64728682,87.5105485 4.5627907,86.835443 L4.5627907,9.87341772 Z" id="Combined-Shape" fill="#314B75"/><rect id="Rectangle-129" fill="#9B8EEB" x="4.056" y="43.291" width="22.814" height="6.835"/><rect id="Rectangle-129-Copy" fill="#FF4B55" x="4.056" y="52.405" width="23.574" height="6.835"/><rect id="Rectangle-129-Copy-2" fill="#16A8FE" x="3.802" y="61.519" width="23.574" height="6.835"/><rect id="Rectangle-105" fill="#16A8FE" x="10.393" y="14.43" width="34.728" height="3.038"/><rect id="Rectangle-105-Copy" fill="#9B8EEB" x="10.393" y="22.278" width="17.491" height="3.038"/><rect id="Rectangle-105-Copy-4" fill="#FF4B55" x="10.393" y="30.127" width="21.293" height="3.038"/><rect id="Rectangle-105-Copy-5" fill="#9B8EEB" x="27.884" y="45.823" width="17.237" height="3.038"/><rect id="Rectangle-105-Copy-6" fill="#FF4B55" x="27.884" y="53.671" width="8.365" height="3.038"/><rect id="Rectangle-105-Copy-7" fill="#16A8FE" x="27.884" y="61.519" width="6.844" height="3.038"/><rect id="Rectangle-105-Copy-2" fill="#0096FF" x="32.447" y="22.278" width="12.928" height="3.038"/><rect id="Rectangle-105-Copy-3" fill="#FF4B55" x="49.937" y="22.278" width="12.928" height="3.038"/><path d="M7.34337715,0 L69.4635996,0 L69.4635996,0 C70.9992751,-2.82099011e-16 72.244186,1.24491096 72.244186,2.78058645 L72.244186,9.87341772 L4.5627907,9.87341772 L4.5627907,2.78058645 L4.5627907,2.78058645 C4.5627907,1.24491096 5.80770166,-1.61990198e-16 7.34337715,-4.4408921e-16 Z" id="Rectangle-131" fill="#5A5886"/><ellipse id="Oval-17" fill="#FFF" cx="12.041" cy="4.937" rx="1.901" ry="1.899"/><ellipse id="Oval-17-Copy" fill="#FFF" cx="17.364" cy="4.937" rx="1.901" ry="1.899"/><ellipse id="Oval-17-Copy-2" fill="#FFF" cx="22.687" cy="4.937" rx="1.901" ry="1.899"/></g><g id="Magnifying-glass" transform="translate(0.000000, 33.417722)"><path d="M30.5453488,46.3291139 C18.4355424,46.3291139 8.61860465,36.5247167 8.61860465,24.4303797 C8.61860465,12.3360428 18.4355424,2.53164557 30.5453488,2.53164557 C42.6551553,2.53164557 52.472093,12.3360428 52.472093,24.4303797 C52.472093,36.5247167 42.6551553,46.3291139 30.5453488,46.3291139 Z M30.5453488,40.5063291 C39.4352067,40.5063291 46.6418605,33.3088814 46.6418605,24.4303797 C46.6418605,15.5518781 39.4352067,8.35443038 30.5453488,8.35443038 C21.6554909,8.35443038 14.4488372,15.5518781 14.4488372,24.4303797 C14.4488372,33.3088814 21.6554909,40.5063291 30.5453488,40.5063291 Z" id="Combined-Shape" fill="url(#linearGradient-1)"/><path d="M15.2946578,35.9530294 C12.2298969,32.1866017 10.3930233,27.3834886 10.3930233,22.1518987 C10.3930233,10.0575618 20.209961,0.253164557 32.3197674,0.253164557 C44.4295739,0.253164557 54.2465116,10.0575618 54.2465116,22.1518987 C54.2465116,34.2462357 44.4295739,44.0506329 32.3197674,44.0506329 C27.0713563,44.0506329 22.2536309,42.2090037 18.4791175,39.1374891 L19.3324406,39.9908122 C19.9247424,40.583114 19.9247424,41.5434249 19.3324406,42.1357266 L6.95864391,54.5095233 L6.95864391,54.5095233 C6.36634216,55.1018251 5.40603127,55.1018251 4.81372951,54.5095233 L0.693140789,50.3889346 L0.693140789,50.3889346 C0.100839032,49.7966328 0.100839032,48.836322 0.693140789,48.2440202 L13.0669375,35.8702235 C13.6592392,35.2779218 14.6195501,35.2779218 15.2118519,35.8702235 L15.2946578,35.9530294 Z M32.3197674,38.2278481 C41.2096253,38.2278481 48.4162791,31.0304004 48.4162791,22.1518987 C48.4162791,13.2733971 41.2096253,6.07594937 32.3197674,6.07594937 C23.4299095,6.07594937 16.2232558,13.2733971 16.2232558,22.1518987 C16.2232558,31.0304004 23.4299095,38.2278481 32.3197674,38.2278481 Z" id="Combined-Shape" fill="#15A7FE"/><path d="M15.3518891,36.0125835 C8.28460511,27.4005658 8.76451181,14.6721515 16.7972412,6.63942209 C25.3492288,-1.91256557 39.2236079,-1.90369809 47.7865341,6.65922815 L16.8925339,37.5532284 L17.1113762,37.7720707 C17.703678,38.3643724 17.703678,39.3246833 17.1113762,39.9169851 L4.73835658,52.2900047 C4.14605482,52.8823065 3.18574394,52.8823065 2.59344218,52.2900047 L0.688378371,50.3849409 C0.0960766142,49.7926392 0.0960766142,48.8323283 0.688378371,48.2400265 L0.688378371,48.2400265 L13.061398,35.8670069 C13.6536998,35.2747051 14.6140107,35.2747051 15.2063124,35.8670069 L15.3518891,36.0125835 Z M43.6692035,10.7739256 C37.3831247,4.4878468 27.1978869,4.48133715 20.9198382,10.7593859 C14.6417894,17.0374346 14.6482991,27.2226724 20.9343779,33.5087512 L43.6692035,10.7739256 Z" id="Combined-Shape" fill="#37CCFF"/></g><g id="Phone" transform="translate(77.567442, 43.797468)"><rect id="Rectangle-134" fill="#2D2D49" x="0" y="0" width="31.433" height="56.203" rx="3.539"/><rect id="Rectangle-137" fill="#FFF" x="2.788" y="8.608" width="25.856" height="38.987"/><ellipse id="Oval-18" fill="#000" cx="10.14" cy="4.304" rx="1" ry="1"/><rect id="Rectangle-135" fill="#000" x="12.167" y="3.797" width="7.605" height="1.013" rx=".506"/><path d="M11.5010777,21.7721519 C10.2579678,21.861497 9.49750267,22.1990498 9.21968235,22.7848101 C8.94186202,23.3705705 8.94186202,24.6363933 9.21968235,26.5822785 L7.19528115,28.1548014 L7.19528115,28.1548014 C7.08502909,28.2404434 7.06507875,28.399247 7.1507208,28.509499 C7.16365738,28.5261531 7.17862713,28.5411228 7.19528115,28.5540594 L9.21968235,30.1265823 C8.97141865,32.0356458 8.97141865,33.2600018 9.21968235,33.7996502 C9.46794604,34.3392985 10.1861631,34.676124 11.3743335,34.8101266" id="Path-34" stroke="#15A7FE" stroke-width="1.517"/><path d="M24.4289847,21.7721519 C23.1858748,21.861497 22.4254096,22.1990498 22.1475893,22.7848101 C21.869769,23.3705705 21.869769,24.6363933 22.1475893,26.5822785 L20.1231881,28.1548014 L20.1231881,28.1548014 C20.0129361,28.2404434 19.9929857,28.399247 20.0786278,28.509499 C20.0915644,28.5261531 20.1065341,28.5411228 20.1231881,28.5540594 L22.1475893,30.1265823 C21.8993256,32.0356458 21.8993256,33.2600018 22.1475893,33.7996502 C22.395853,34.3392985 23.1140701,34.676124 24.3022405,34.8101266" id="Path-34-Copy" stroke="#15A7FE" stroke-width="1.517" transform="translate(22.227283, 28.291139) scale(-1, 1) translate(-22.227283, -28.291139)"/><path d="M13.5616279,32.7848101 L17.9976744,20.8860759" id="Path-35" stroke="#15A7FE" stroke-width="2.022"/><g id="Rectangle-136"><use fill="#1A1B2C" fill-rule="evenodd" xlink:href="#path-2"/><use fill="#000" fill-opacity="1" filter="url(#filter-3)" xlink:href="#path-2"/></g></g></g></g></g></g></g></svg>