<svg width="119" height="100" viewBox="0 0 119 100" version="1.1" xmlns="http://www.w3.org/2000/svg" xmlns:xlink="http://www.w3.org/1999/xlink"><title>Desktop Graphic</title><desc>Created with Sketch.</desc><g id="Responsive" stroke="none" stroke-width="1" fill="none" fill-rule="evenodd"><g id="Web-Home" transform="translate(-661.000000, -683.000000)"><g id="Features" transform="translate(150.000000, 683.000000)"><g id="Desktop-Intergration" transform="translate(400.000000, 0.000000)"><g id="Desktop-Graphic" transform="translate(111.000000, 0.000000)"><path d="M110.637971,69.5180723 L105.510121,69.5180723 L106.955905,70.9638554 L106.955905,68.7951807 L105.510121,70.2409639 L106.233013,70.2409639 L110.637971,70.2409639 L110.721053,69.8795181 L110.637971,69.5180723 Z M114.09297,34.3048726 L114.858644,34.1492577 C116.415699,33.8328033 117.554217,32.4546873 117.554217,30.8433735 C117.554217,28.9801459 116.044409,27.4698795 114.182186,27.4698795 C112.319963,27.4698795 110.810156,28.9801459 110.810156,30.8433735 C110.810156,32.3918185 111.862354,33.7310131 113.338801,34.1108511 L114.09297,34.3048726 Z M114.424364,46.8674699 L105.510121,46.8674699 L106.955905,45.4216867 L106.955905,47.5903614 L105.510121,46.1445783 L113.099026,46.1445783 C113.431286,46.1445783 113.700814,45.8749686 113.700814,45.5421687 L113.700814,34.3845741 L114.09297,34.3048726 L114.424364,34.3901287 L114.424364,46.8674699 Z M54.4412955,15.2698186 L55.2012354,15.0950328 C56.7182489,14.7461205 57.8133262,13.3871597 57.8133262,11.8072289 C57.8133262,9.94400137 56.3035183,8.43373494 54.4412955,8.43373494 C52.5790728,8.43373494 51.0692649,9.94400137 51.0692649,11.8072289 C51.0692649,13.3871597 52.1643422,14.7461205 53.6813557,15.0950328 L54.4412955,15.2698186 Z M54.8030706,15.3530266 L54.8030706,22.6506024 L53.3572874,21.2048193 L55.5253036,21.2048193 L54.0795205,22.6506024 L54.0795205,15.3530266 L54.4412955,15.2698186 L54.8030706,15.3530266 Z M8.36202865,61.8072289 L13.4898785,61.8072289 L12.0440954,60.3614458 L12.0440954,62.5301205 L13.4898785,61.0843373 L8.36202865,61.0843373 L8.27894679,61.4457831 L8.36202865,61.8072289 Z M26.4979757,8.28186675 L27.2579156,8.10708099 C28.774929,7.75816872 29.8700063,6.39920788 29.8700063,4.81927711 C29.8700063,2.95604956 28.3601985,1.44578313 26.4979757,1.44578313 C24.6357529,1.44578313 23.1259451,2.95604956 23.1259451,4.81927711 C23.1259451,6.39920788 24.2210224,7.75816872 25.7380358,8.10708099 L26.4979757,8.28186675 Z M14.2972614,13.6639224 L14.1589421,12.8926095 C13.8731671,11.2990356 12.4787714,10.1204819 10.840081,10.1204819 C8.97785818,10.1204819 7.46805034,11.6307484 7.46805034,13.4939759 C7.46805034,15.3572035 8.97785818,16.8674699 10.840081,16.8674699 C12.3590844,16.8674699 13.6793538,15.8533392 14.0857438,14.4133874 L14.2972614,13.6639224 Z M26.8597507,14.0831919 L14.3724488,14.0831919 L14.2972614,13.6639224 L14.382951,13.3603004 L26.8597507,13.3603004 L26.8597507,22.6506024 L25.4139676,21.2048193 L26.1362007,21.2048193 L27.5819838,21.2048193 L26.1362007,22.6506024 L26.1362007,13.3603004 L34.4473684,13.3603004 C35.7115916,13.3603004 36.736269,14.385289 36.736269,15.649457 L36.736269,22.5301205 L35.2904858,21.0843373 L37.458502,21.0843373 L36.0127189,22.5301205 L36.0127189,15.649457 C36.0127189,14.7843344 35.3117893,14.0831919 34.4473684,14.0831919 L26.1362007,14.0831919 L26.1362007,8.36507481 L26.4979757,8.28186675 L26.8597507,8.36507481 L26.8597507,14.0831919 Z" id="Combined-Shape" stroke="#37CCFF" stroke-width="2.892"/><g id="Monitor-Body" transform="translate(13.489879, 22.650602)"><rect id="Rectangle-140" fill="#748A95" x="31.316" y="67.47" width="31.075" height="4.578"/><path d="M0,56.626506 L92.0202429,56.626506 L92.0202429,65.3012048 L92.0202429,65.3012048 C92.0202429,66.4989308 91.0492942,67.4698795 89.8515682,67.4698795 L2.1686747,67.4698795 L2.1686747,67.4698795 C0.970948735,67.4698795 -1.62967771e-15,66.4989308 -1.77635684e-15,65.3012048 L0,56.626506 Z" id="Rectangle-139" fill="#9EB2B9"/><path d="M3.37349398,0 L88.6467489,0 L88.6467489,-4.4408921e-16 C90.5098782,7.48761558e-15 92.0202429,1.5103647 92.0202429,3.37349398 L92.0202429,56.626506 L0,56.626506 L0,3.37349398 L4.4408921e-16,3.37349398 C2.15921679e-16,1.5103647 1.5103647,-1.43410554e-15 3.37349398,-1.77635684e-15 Z" id="Rectangle-138" fill="#51636F"/><path d="M31.3157895,71.9277108 C30.7986055,72.2866434 30.1963787,72.6480892 29.5091093,73.0120482 C28.8218399,73.3760072 28.0590194,73.737453 27.2206478,74.0963855 C26.6585695,74.4578313 26.3775304,74.8995984 26.3775304,75.4216867 C26.3775304,75.9437751 26.8593117,76.5863454 27.8228745,77.3493976 L66.1252562,77.3493976 C66.8301241,76.5062802 67.191206,75.8235493 67.208502,75.3012048 C67.2257981,74.7788604 66.9046105,74.256772 66.2449393,73.7349398 C65.1838953,73.330833 64.3809263,73.0095478 63.8360324,72.7710843 C63.2911385,72.5326208 62.8093571,72.291657 62.3906883,72.0481928 L31.3157895,71.9277108 Z" id="Path-36" fill="#9EB2B9"/></g><g id="On-Screen" transform="translate(18.307692, 26.987952)"><rect id="Rectangle-138" fill="#34C9FF" x="0" y="0" width="82.385" height="47.952"/><polygon id="Rectangle-138" fill="#17A9FE" points="0 0 82.3846154 0 0 47.9518072"/><path d="M67.6902834,4.3373494 L72.0256573,4.3373494 L72.0256573,4.3373494 C73.2233832,4.3373494 74.194332,5.30829813 74.194332,6.5060241 L74.194332,47.9518072 L67.6902834,47.9518072 L67.6902834,4.3373494 Z" id="Rectangle-141" fill="#57BEFF"/><path d="M15.4176626,4.3373494 L67.2078435,4.3373494 L67.2078435,4.3373494 C68.4055695,4.3373494 69.3765182,5.30829813 69.3765182,6.5060241 L69.3765182,47.9518072 L13.2489879,47.9518072 L13.2489879,6.5060241 L13.2489879,6.5060241 C13.2489879,5.30829813 14.2199366,4.3373494 15.4176626,4.3373494 Z" id="Rectangle-141" fill="#5F5F69"/><ellipse id="Oval-20" fill="#FF7370" cx="18.067" cy="7.952" rx="1.445" ry="1.446"/><ellipse id="Oval-20-Copy" fill="#F9B602" cx="23.126" cy="7.952" rx="1.445" ry="1.446"/><ellipse id="Oval-20-Copy-2" fill="#67E546" cx="28.184" cy="7.952" rx="1.445" ry="1.446"/><rect id="Rectangle-142" fill="#EEE" x="19.753" y="13.976" width="32.52" height="8.434"/><rect id="Rectangle-142-Copy-3" fill="#D7E8F8" x="54.441" y="13.976" width="8.431" height="31.084"/><rect id="Rectangle-142-Copy" fill="#EEE" x="19.753" y="25.301" width="32.52" height="8.434"/><rect id="Rectangle-142-Copy-2" fill="#EEE" x="19.753" y="36.627" width="32.52" height="8.434"/></g><g id="Notification" transform="translate(78.530364, 0.000000)"><path d="M17.4645749,33.0120482 C26.5778323,33.0120482 33.965587,25.6220495 33.965587,16.5060241 C33.965587,7.38999871 26.5778323,0 17.4645749,0 C8.35131753,0 0.963562753,7.38999871 0.963562753,16.5060241 C0.963562753,21.3288047 3.03130515,25.6684915 6.32836316,28.6864031 C6.40288977,28.7546199 4.69491987,31.2406783 1.20445344,36.1445783 L5.29959514,38.6746988 L0.120445344,45.3012048 L15.417004,36.2650602 L10.3582996,34.4578313 C14.7041784,33.4939759 17.0729368,33.0120482 17.4645749,33.0120482 Z" id="Oval-21" fill="#F97A6D"/><path d="M19.0303644,18.8262942 L14.9352227,18.8262942 L14.9352227,7.46987952 L19.0303644,7.46987952 L19.0303644,18.8262942 Z M19.0303644,25.060241 L14.9352227,25.060241 L14.9352227,21.6412353 L19.0303644,21.6412353 L19.0303644,25.060241 Z" id="!" fill="#FFF"/></g></g></g></g></g></g></svg>