<svg width="674" height="307" viewBox="0 0 674 307" version="1.1" xmlns="http://www.w3.org/2000/svg" xmlns:xlink="http://www.w3.org/1999/xlink"><title>Hero Graphic</title><desc>Created with Sketch.</desc><defs><linearGradient x1="50%" y1="0%" x2="50%" y2="98.97%" id="linearGradient-1"><stop stop-color="#37CCFF" offset="0%"/><stop stop-color="#15A7FE" offset="100%"/></linearGradient><linearGradient x1="50%" y1="31.032%" x2="55.688%" y2="64.917%" id="linearGradient-2"><stop stop-color="#CADBF3" offset="0%"/><stop stop-color="#CADBF3" offset="100%"/></linearGradient><linearGradient x1="50%" y1="10.438%" x2="50%" y2="100%" id="linearGradient-3"><stop stop-color="#000" stop-opacity=".01" offset="0%"/><stop stop-color="#000" stop-opacity=".2" offset="100%"/></linearGradient><linearGradient x1="75.346%" y1="21.072%" x2="36.189%" y2="43.977%" id="linearGradient-4"><stop stop-color="#000" stop-opacity=".09" offset="0%"/><stop stop-color="#000" stop-opacity=".01" offset="100%"/></linearGradient><linearGradient x1="42.038%" y1="7.115%" x2="75.758%" y2="25.191%" id="linearGradient-5"><stop stop-color="#000" stop-opacity="0" offset="0%"/><stop stop-color="#000" stop-opacity=".1" offset="100%"/></linearGradient><linearGradient x1="50%" y1="22.099%" x2="50%" y2="98.302%" id="linearGradient-6"><stop stop-color="#000" stop-opacity=".03" offset="0%"/><stop stop-color="#000" stop-opacity=".1" offset="100%"/></linearGradient><linearGradient x1="80.855%" y1="45.22%" x2="7.501%" y2="50.998%" id="linearGradient-7"><stop stop-color="#000" stop-opacity="0" offset="0%"/><stop stop-color="#000" stop-opacity=".1" offset="100%"/></linearGradient><linearGradient x1="13.265%" y1="68.929%" x2="95.587%" y2="68.929%" id="linearGradient-8"><stop stop-color="#FFC754" offset="0%"/><stop stop-color="#FFA421" offset="100%"/></linearGradient><linearGradient x1="48.406%" y1="73.305%" x2="61.18%" y2="8.255%" id="linearGradient-9"><stop stop-color="#000" stop-opacity=".05" offset="0%"/><stop stop-color="#000" stop-opacity=".2" offset="100%"/></linearGradient><linearGradient x1="48.05%" y1="60.608%" x2="59.904%" y2="8.255%" id="linearGradient-10"><stop stop-color="#FFE286" offset="0%"/><stop stop-color="#FEDC71" offset="100%"/></linearGradient><linearGradient x1="77.83%" y1="81.478%" x2="4.18%" y2="81.478%" id="linearGradient-11"><stop stop-color="#748A95" offset="0%"/><stop stop-color="#8CA2AD" offset="100%"/></linearGradient><linearGradient x1="94.616%" y1="50%" x2="3.744%" y2="50%" id="linearGradient-12"><stop stop-color="#A3B7BD" offset="0%"/><stop stop-color="#8EA3AC" offset="100%"/></linearGradient><rect id="path-13" x="0" y="0" width="211" height="151"/><filter x="-1.7%" y="-1.7%" width="103.3%" height="104.6%" filterUnits="objectBoundingBox" id="filter-14"><feOffset dx="0" dy="1" in="SourceAlpha" result="shadowOffsetOuter1"/><feGaussianBlur stdDeviation="1" in="shadowOffsetOuter1" result="shadowBlurOuter1"/><feComposite in="shadowBlurOuter1" in2="SourceAlpha" operator="out" result="shadowBlurOuter1"/><feColorMatrix values="0 0 0 0 0 0 0 0 0 0 0 0 0 0 0 0 0 0 0.2 0" type="matrix" in="shadowBlurOuter1"/></filter><linearGradient x1="96.156%" y1="50%" x2="9.631%" y2="50%" id="linearGradient-15"><stop stop-color="#1CAEFF" stop-opacity=".6" offset="0%"/><stop stop-color="#37CBFF" stop-opacity="0" offset="100%"/></linearGradient><linearGradient x1="41.982%" y1="7.771%" x2="46.46%" y2="68.932%" id="linearGradient-16"><stop stop-color="#FA988D" offset="0%"/><stop stop-color="#F97A6D" offset="100%"/></linearGradient><linearGradient x1="55.24%" y1="0%" x2="55.24%" y2="82.168%" id="linearGradient-17"><stop stop-color="#7F7ECE" offset="0%"/><stop stop-color="#5A5886" offset="100%"/></linearGradient></defs><g id="Responsive" stroke="none" stroke-width="1" fill="none" fill-rule="evenodd"><g id="Web-Home" transform="translate(-631.000000, -192.000000)"><g id="Hero" transform="translate(135.000000, 192.000000)"><g id="Hero-Graphic" transform="translate(496.000000, 0.000000)"><g id="Illustrations-Left" transform="translate(0.000000, 10.505703)" fill-rule="nonzero"><path d="M78.7704331,99.6092503 C76.8002313,92.9723784 70.6508784,88.1311787 63.3700173,88.1311787 C55.8037654,88.1311787 49.4594643,93.359342 47.7573677,100.397789 C47.6085703,100.391176 47.4589219,100.387833 47.3084922,100.387833 C41.8248885,100.387833 37.3795494,104.830087 37.3795494,110.309886 C37.3795494,115.789685 41.8248885,120.231939 47.3084922,120.231939 L75.9272097,120.231939 C81.733378,120.231939 86.440208,115.528375 86.440208,109.726236 C86.440208,104.908686 83.1952846,100.848503 78.7704331,99.6092503 L78.7704331,99.6092503 Z" id="Cloud" fill="url(#linearGradient-1)"/><g id="Dots" transform="translate(115.642981, 0.000000)"><ellipse id="Oval-11" fill-opacity=".5" fill="#13A1F8" cx="7.009" cy="7.004" rx="7.009" ry="7.004"/><ellipse id="Oval-11-Copy-4" fill="#B7B6D9" cx="7.009" cy="32.684" rx="7.009" ry="7.004"/><ellipse id="Oval-11-Copy-7" fill-opacity=".5" fill="#13A1F8" cx="7.009" cy="58.365" rx="7.009" ry="7.004"/><ellipse id="Oval-11-Copy-9" fill="#B7B6D9" cx="7.009" cy="84.629" rx="7.009" ry="7.004"/><ellipse id="Oval-11-Copy" fill="#B7B6D9" cx="35.043" cy="7.004" rx="7.009" ry="7.004"/><ellipse id="Oval-11-Copy-5" fill="#B7B6D9" cx="35.043" cy="32.684" rx="7.009" ry="7.004"/><ellipse id="Oval-11-Copy-8" fill="#B7B6D9" cx="35.043" cy="58.365" rx="7.009" ry="7.004"/><ellipse id="Oval-11-Copy-10" fill-opacity=".5" fill="#F97A6D" cx="35.043" cy="84.629" rx="7.009" ry="7.004"/><ellipse id="Oval-11-Copy-2" fill="#B7B6D9" cx="63.078" cy="7.004" rx="7.009" ry="7.004"/><ellipse id="Oval-11-Copy-6" fill-opacity=".5" fill="#13A1F8" cx="63.078" cy="32.684" rx="7.009" ry="7.004"/><ellipse id="Oval-11-Copy-3" fill-opacity=".5" fill="#F97A6D" cx="91.113" cy="7.004" rx="7.009" ry="7.004"/></g><g id="Document" transform="translate(67.000000, 127.235741)"><polygon id="Rectangle-104" fill="url(#linearGradient-2)" points="0.16998291 30.3498099 30.5408668 7.31510793e-17 104.131855 0 104.131855 168.674905 0.16998291 168.674905"/><rect id="Text" fill-opacity=".5" fill="#5A5886" x="12.432" y="18.677" width="81.184" height="3.502"/><rect id="Text" fill-opacity=".5" fill="#5A5886" x="10.679" y="24.513" width="82.936" height="3.502"/><rect id="Text" fill-opacity=".5" fill="#5A5886" x="10.679" y="53.696" width="82.936" height="3.502"/><rect id="Text-Copy-40" fill-opacity=".5" fill="#5A5886" x="10.679" y="65.369" width="82.936" height="3.502"/><rect id="Text-Copy-45" fill-opacity=".5" fill="#5A5886" x="10.679" y="100.388" width="82.936" height="3.502"/><rect id="Text-Copy-42" fill-opacity=".5" fill="#5A5886" x="10.679" y="77.042" width="82.936" height="3.502"/><rect id="Text-Copy-46" fill-opacity=".5" fill="#5A5886" x="10.679" y="112.061" width="82.936" height="3.502"/><rect id="Text" fill-opacity=".5" fill="#5A5886" x="10.679" y="59.532" width="82.936" height="3.502"/><rect id="Text-Copy-41" fill-opacity=".5" fill="#5A5886" x="10.679" y="71.205" width="82.936" height="3.502"/><rect id="Text-Copy-47" fill-opacity=".5" fill="#5A5886" x="10.679" y="106.224" width="82.936" height="3.502"/><rect id="Text-Copy-43" fill-opacity=".5" fill="#5A5886" x="10.679" y="82.878" width="82.936" height="3.502"/><rect id="Text-Copy-48" fill-opacity=".5" fill="#5A5886" x="10.679" y="117.897" width="82.936" height="3.502"/><rect id="Text-Copy-2" fill-opacity=".5" fill="#5A5886" x="10.679" y="36.186" width="82.936" height="3.502"/><rect id="Text-Copy-3" fill-opacity=".5" fill="#5A5886" x="10.679" y="42.023" width="46.724" height="3.502"/><rect id="Text-Copy-44" fill-opacity=".5" fill="#5A5886" x="10.679" y="88.715" width="64.246" height="3.502"/><rect id="Text-Copy-49" fill-opacity=".5" fill="#5A5886" x="10.679" y="123.734" width="64.246" height="3.502"/><path d="M30.5372617,0 L30.5372617,19.8441065 L30.5372617,19.8441065 C30.5372617,25.6462463 25.8304318,30.3498099 20.0242634,30.3498099 L0.166377816,30.3498099 L30.5372617,0 Z" id="Rectangle-106" fill="#847A9E"/><rect id="Rectangle-128" fill="url(#linearGradient-3)" x="90.111" y="0" width="14.017" height="127.236"/></g><g id="Calendar" transform="translate(0.000000, 196.235741)"><rect id="Rectangle-98" fill="#F3F3F3" x="0" y="7.458" width="99.289" height="92.8" rx="12.257"/><rect id="Rectangle-103" fill-opacity=".04" fill="#000" x="0" y="31.388" width="99.289" height="30.933"/><path d="M11.6811092,7.4581749 L87.6083189,7.4581749 L87.6083189,7.4581749 C94.0596174,7.4581749 99.2894281,12.6843567 99.2894281,19.1311787 L99.2894281,30.8041825 L0,30.8041825 L0,19.1311787 L0,19.1311787 C-7.900562e-16,12.6843567 5.22981072,7.4581749 11.6811092,7.4581749 Z" id="Rectangle-101" fill="#F97B6D"/><rect id="Rectangle-99" fill="#CFD9DB" x="36.211" y="84.5" width="25.114" height="3.502" rx="1.167"/><path d="M61.3258232,7.4581749 L80.0155979,7.4581749 L80.0155979,16.2129278 L80.0155979,16.2129278 C80.0155979,21.3703853 75.8317493,25.5513308 70.6707106,25.5513308 L70.6707106,25.5513308 L70.6707106,25.5513308 C65.5096718,25.5513308 61.3258232,21.3703853 61.3258232,16.2129278 L61.3258232,7.4581749 Z" id="Rectangle-100-Copy" fill="url(#linearGradient-4)"/><path d="M19.2738302,7.4581749 L37.9636049,7.4581749 L37.9636049,16.2129278 L37.9636049,16.2129278 C37.9636049,21.3703853 33.7797563,25.5513308 28.6187175,25.5513308 L28.6187175,25.5513308 L28.6187175,25.5513308 C23.4576787,25.5513308 19.2738302,21.3703853 19.2738302,16.2129278 L19.2738302,7.4581749 Z" id="Rectangle-100-Copy" fill="url(#linearGradient-4)"/><rect id="Rectangle-100" fill="#F9B879" x="24.53" y="2.205" width="8.177" height="18.093" rx="4.086"/><rect id="Rectangle-100-Copy" fill="#F9B879" x="66.582" y="2.205" width="8.177" height="18.093" rx="4.086"/><path d="M44.3882149,75.7452471 L19.6003332,75.7452471 L19.6003332,70.4422103 L30.5736247,58.5826911 C32.0432693,56.9435627 33.1209925,55.4812248 33.8068267,54.1956337 C34.4926609,52.910042 34.8355728,51.7932017 34.8355728,50.8450783 C34.8355728,49.4791378 34.5253191,48.3984541 33.9048025,47.6029943 C33.2842859,46.8075345 32.2882084,46.4098108 30.9165401,46.4098108 C29.6265187,46.4098108 28.6263589,46.9280571 27.9160307,47.964565 C27.2057025,49.0010729 26.8505437,50.3228013 26.8505437,51.9297904 L18.7430448,51.9297904 L18.6940569,51.7851619 C18.61241,48.5390443 19.6982978,45.7871173 21.9517528,43.5292975 C24.2052079,41.2714782 27.1934404,40.1425856 30.9165401,40.1425856 C34.819263,40.1425856 37.8319892,41.0866777 39.9548092,42.9748893 C42.0776292,44.8631016 43.1390232,47.4623667 43.1390232,50.772764 C43.1390232,52.9904089 42.5511742,54.9549235 41.3754586,56.6663668 C40.1997428,58.3778095 38.0442964,60.9047621 34.9090546,64.2472987 L30.5736247,69.3574981 L30.6226127,69.4780219 L44.3882149,69.4780219 L44.3882149,75.7452471 Z M53.2711557,60.395682 L55.3008006,40.7262357 L75.9113614,40.7262357 L75.9113614,47.0416705 L61.9213086,47.0416705 L61.0272985,54.3453989 C61.6877419,53.8793718 62.5293921,53.5017355 63.5522736,53.2124773 C64.575155,52.9232191 65.6906431,52.7625227 66.8987712,52.7303828 C70.168771,52.6661037 72.6856669,53.6664392 74.4495336,55.7314199 C76.2134004,57.7964005 77.0953206,60.7250941 77.0953206,64.5175877 C77.0953206,67.9083344 76.1127244,70.7245405 74.1475028,72.9662896 C72.1822817,75.2080392 69.08952,76.3288973 64.8691265,76.3288973 C61.5185849,76.3288973 58.6070398,75.4490844 56.1344048,73.689431 C53.6617695,71.9297782 52.4737948,69.603697 52.570445,66.7111167 L52.5946074,66.5664882 L60.5923746,66.0843943 C60.5923746,67.3217759 60.9829967,68.2939894 61.7642532,69.0010647 C62.5455092,69.7081394 63.5804566,70.0616721 64.8691265,70.0616721 C66.3833136,70.0616721 67.4383964,69.6036871 68.0344057,68.6877029 C68.6304156,67.7717194 68.9284165,66.3977648 68.9284165,64.5657972 C68.9284165,62.6374106 68.5820915,61.1188286 67.8894315,60.0100065 C67.1967715,58.9011838 66.1014181,58.3467815 64.6033398,58.3467815 C63.5240789,58.3467815 62.6502128,58.579791 61.9817152,59.0458181 C61.3132176,59.5118447 60.8501089,60.0983869 60.5923746,60.8054622 L53.2711557,60.395682 Z" id="25" fill="#5F5F69"/><path d="M79.4315425,99.3830798 L102.501733,99.3830798 C104.64327,97.243029 105.908723,94.2275034 106.298094,90.3365019 L106.298094,14.4619772 C103.767187,7.4581749 100.554882,2.78897338 96.6611785,0.454372624 L80.8916811,7.16634981 C86.7322357,8.91730038 90.1392257,12.0301012 91.1126516,16.5047529 L91.1126516,89.753433 C89.5551702,95.7840973 85.6614676,98.9939795 79.4315425,99.3830798 Z" id="Path-21" fill="url(#linearGradient-5)"/></g></g><g id="Illustrations-Right" transform="translate(508.128250, 104.473384)" fill-rule="nonzero"><g id="Graph" transform="translate(70.670711, 0.000000)"><rect id="Rectangle-111" fill="#B7B6D9" x="0" y="35.019" width="15.769" height="19.844"/><rect id="Rectangle-112" fill="#87CEF9" x="26.867" y="12.257" width="15.769" height="77.625"/><rect id="Rectangle-112" fill="#FABAB4" x="53.733" y="0" width="15.769" height="89.882"/><rect id="Rectangle-112-Copy" fill="#87CEF9" x="79.432" y="21.011" width="15.769" height="68.871"/></g><g id="Book" transform="translate(0.000000, 54.863118)"><path d="M16.3535529,0 L90.5285962,0 L90.5285962,1.03677101e-15 C95.0445048,2.07787617e-16 98.7053726,3.65832727 98.7053726,8.17110266 L98.7053726,147.663498 L16.3535529,147.663498 L16.3535529,0 Z" id="Rectangle-107-Copy-2" fill="#0D6EE6"/><path d="M8.76083189,0 L82.9358752,0 L82.9358752,1.03677101e-15 C87.4517839,2.07787617e-16 91.1126516,3.65832727 91.1126516,8.17110266 L91.1126516,147.663498 L8.76083189,147.663498 L8.76083189,0 Z" id="Rectangle-107-Copy" fill="#E5E6E8"/><path d="M3.50433276,0 L77.6793761,0 L77.6793761,1.03677101e-15 C82.1952847,2.07787617e-16 85.8561525,3.65832727 85.8561525,8.17110266 L85.8561525,147.663498 L3.50433276,147.663498 L3.50433276,0 Z" id="Rectangle-107-Copy" fill="#CADAF7"/><path d="M0,0 L74.1750433,0 L74.1750433,1.03677101e-15 C78.690952,2.07787617e-16 82.3518198,3.65832727 82.3518198,8.17110266 L82.3518198,147.663498 L0,147.663498 L0,0 Z" id="Rectangle-107" fill="#14A6FF"/><polygon id="Rectangle-109" fill-opacity=".1" fill="#000" points="48.4766031 0 66.5823224 0 66.5823224 29.7661597 57.5294627 25.0969582 48.4766031 29.7661597"/><polygon id="Rectangle-109" fill="#F9B879" points="46.7244367 0 64.830156 0 64.830156 26.2642586 55.7772964 21.595057 46.7244367 26.2642586"/><rect id="Rectangle-108" fill="#0D6EE6" x="22.194" y="60.116" width="33.875" height="5.253" rx="1.167"/><rect id="Rectangle-108-Copy" fill="#0D6EE6" x="11.681" y="37.937" width="54.901" height="14.591" rx="2.335"/><rect id="Shadow" fill="url(#linearGradient-6)" x="0" y="0" width="14.017" height="105.641"/></g><g id="Messages" transform="translate(57.821490, 126.652091)"><path d="M7.59272097,0 L24.5303293,0 L24.5303293,75.8745247 L7.59272097,75.8745247 L7.59272097,75.8745247 C3.39937697,75.8745247 7.35044688e-15,72.4775067 3.11247273e-15,68.2870722 L0,7.58745247 L0,7.58745247 C-5.13536531e-16,3.39701818 3.39937697,7.69770288e-16 7.59272097,0 Z" id="Rectangle-110" fill="url(#linearGradient-7)"/><rect id="Rectangle-110" fill="url(#linearGradient-8)" x="7.009" y="53.696" width="85.272" height="22.179" rx="7.587"/><rect id="Rectangle-110" fill="#FFCC59" x="7.009" y="7.004" width="85.272" height="61.283" rx="7.587"/><path d="M12.8492201,12.8403042 L86.440208,12.8403042 L86.440208,12.8403042 C89.6658569,12.8403042 92.2807626,15.4533951 92.2807626,18.6768061 L92.2807626,21.7380909 L92.2807626,21.7380909 C92.2807626,23.4940369 91.4896437,25.1566684 90.1267462,26.2650155 L56.1611076,53.886838 L56.1611076,53.886838 C52.5303474,56.8394754 47.3290592,56.8568799 43.678593,53.928607 L9.19310249,26.2655849 L9.19310249,26.2655849 C7.81211848,25.1578091 7.00866551,23.4837339 7.00866551,21.7140903 L7.00866551,18.6768061 L7.00866551,18.6768061 C7.00866551,15.4533951 9.62357087,12.8403042 12.8492201,12.8403042 Z" id="Rectangle-110" fill="url(#linearGradient-9)"/><path d="M14.6013865,7.00380228 L84.6880416,7.00380228 L84.6880416,7.00380228 C88.8813857,7.00380228 92.2807626,10.4008205 92.2807626,14.5912548 L92.2807626,19.0067352 L92.2807626,19.0067352 C92.2807626,20.9847616 91.278222,22.8281789 89.6172997,23.9041677 L55.3009823,46.1351715 L55.3009823,46.1351715 C52.0341118,48.2515353 47.8309347,48.2646301 44.5509228,46.1686628 L9.70274753,23.9002582 L9.70274753,23.9002582 C8.02425181,22.8276791 7.00866551,20.9740707 7.00866551,18.9831249 L7.00866551,14.5912548 L7.00866551,14.5912548 C7.00866551,10.4008205 10.4080425,7.00380228 14.6013865,7.00380228 Z" id="Rectangle-110" fill="url(#linearGradient-10)"/></g></g><g id="Laptop" transform="translate(146.000000, 38.000000)"><g id="Laptop-Screen" transform="translate(25.128250, 0.520913)" fill-rule="nonzero"><path d="M29.7868284,0 L307.213172,0 L307.213172,4.14708403e-15 C323.663983,-2.80750177e-14 337,13.3267637 337,29.7661597 L337,226.456274 L0,226.456274 L0,29.7661597 L4.14996364e-15,29.7661597 C2.13532033e-15,13.3267637 13.3360174,7.16695212e-15 29.7868284,0 Z" id="Rectangle-124" fill="#51636F"/><path d="M31.6811092,18 L306.771231,18 L306.771231,18 C313.222529,18 318.45234,23.2261818 318.45234,29.6730038 L318.45234,238.619772 L20,238.619772 L20,29.6730038 L20,29.6730038 C20,23.2261818 25.2298107,18 31.6811092,18 Z" id="Rectangle-125" fill="#FAFAFA"/><ellipse id="Oval-14" fill="#FFF" cx="169.084" cy="9.047" rx="4.38" ry="4.377"/></g><g id="Laptop-Base" transform="translate(0.013865, 226.977186)" fill-rule="nonzero"><path d="M0,0 L158.279029,0 L158.279029,0.58365019 L158.279029,0.58365019 C158.279029,7.03047218 163.50884,12.256654 169.960139,12.256654 L217.852686,12.256654 L217.852686,12.256654 C224.303985,12.256654 229.533795,7.03047218 229.533795,0.58365019 L229.533795,0 L388.39688,0 L388.39688,26.2642586 L388.39688,26.2642586 C388.39688,34.9674682 381.336636,42.0228137 372.627383,42.0228137 L15.7694974,42.0228137 L15.7694974,42.0228137 C7.0602445,42.0228137 4.93426112e-15,34.9674682 0,26.2642586 L0,0 Z" id="Rectangle-123" fill="url(#linearGradient-11)"/><polygon id="Rectangle-123" fill="#B9C8CD" points="0 0 388.39688 0 388.39688 26.2642586 0 26.2642586"/><path d="M0,0 L158.279029,0 L158.279029,0.58365019 L158.279029,0.58365019 C158.279029,7.03047218 163.50884,12.256654 169.960139,12.256654 L217.852686,12.256654 L217.852686,12.256654 C224.303985,12.256654 229.533795,7.03047218 229.533795,0.58365019 L229.533795,0 L388.39688,0 L388.39688,26.2642586 L0,26.2642586 L0,0 Z" id="Rectangle-123" fill="url(#linearGradient-12)"/></g><g id="Screen-details" transform="translate(45.000000, 18.000000)"><g id="Container.js-Container" transform="translate(44.000000, 35.000000)"><g id="Rectangle-154"><use fill="#000" fill-opacity="1" filter="url(#filter-14)" xlink:href="#path-13"/><use fill="#F2F2F2" fill-rule="evenodd" xlink:href="#path-13"/><rect stroke="#E3E7EA" stroke-width="1" x=".5" y=".5" width="210" height="150"/></g><rect id="Rectangle-153" fill="#E3E7EA" x="0" y="0" width="211" height="13.213"/><rect id="Rectangle" fill="#FDCB30" x="6" y="4" width="6" height="6" rx="3"/><rect id="Rectangle-Copy" fill="#10A4FE" x="15" y="4" width="6" height="6" rx="3"/><rect id="Rectangle-Copy-2" fill="#0FCAAD" x="24" y="4" width="6" height="6" rx="3"/><text id="container.js-copy" font-family="OpenSans-Extrabold, Open Sans" font-size="24" font-weight="600" letter-spacing="-.8" fill="#5A5886"><tspan x="36" y="85">container.js</tspan></text></g><path d="M12,0.5 L298,0.5 L298,9.5 L0.400024414,9.5 C1.03303437,6.79621871 2.3996929,4.62955204 4.5,3 C6.6003071,1.37044796 9.1003071,0.537114622 12,0.5 Z" id="Screen-reflection" fill="url(#linearGradient-15)"/></g></g><g id="Screen-Reflection" transform="translate(184.000000, 45.000000)" fill-opacity=".4" fill="#FFF"><polygon id="Rectangle-3" transform="translate(57.889514, 100.742091) rotate(31.000000) translate(-57.889514, -100.742091)" points="53.9376437 0.263824908 61.2850015 -5.07940619 61.8413849 206.563587 54.3100175 194.029287"/><polygon id="Rectangle-3-Copy" transform="translate(88.441192, 117.722045) rotate(31.000000) translate(-88.441192, -117.722045)" points="73.8576874 2.56251318 94.9149292 -10.0899541 103.024696 228.28027 74.3095916 245.534045"/></g><g id="Messages" transform="translate(422.856153, 0.000000)" fill-rule="nonzero"><g id="Speech-bubble-2" transform="translate(109.955806, 74.264259) scale(-1, 1) translate(-109.955806, -74.264259) translate(53.455806, 26.264259)"><path d="M38.839688,2.84199747e-14 L73.8830156,2.84199747e-14 L73.8830156,4.50093233e-14 C95.3335831,4.10715678e-14 112.722704,17.3770545 112.722704,38.8127376 L112.722704,38.8127376 L112.722704,38.8127376 C112.722704,60.2484208 95.3335831,77.6254753 73.8830156,77.6254753 L40.2998267,77.6254753 L23.3622184,95.4268061 L23.3622184,74.1235741 C22.9973282,73.8455384 22.595071,73.6052303 22.1554467,73.4026494 L22.1554463,73.4026506 C8.64997139,67.1792703 1.82131833e-15,53.6746108 0,38.8127376 L0,38.8127376 L0,38.8127376 C-2.62693687e-15,17.3770545 17.3891206,4.06529107e-14 38.839688,2.84199747e-14 Z" id="Rectangle-126" fill="url(#linearGradient-16)"/><ellipse id="Oval-15" fill="#FFF" cx="33.875" cy="39.105" rx="5.256" ry="5.253"/><ellipse id="Oval-15-Copy" fill="#FFF" cx="54.317" cy="39.105" rx="5.256" ry="5.253"/><ellipse id="Oval-15-Copy-2" fill="#FFF" cx="71.839" cy="39.105" rx="5.256" ry="5.253"/></g><g id="Speech-bubble-1" transform="translate(-0.000000, 0.000000)"><path d="M38.839688,2.84204084e-14 L73.8830156,2.84204084e-14 L73.8830156,2.84211677e-14 C95.3335831,2.44834123e-14 112.722704,17.3770545 112.722704,38.8127376 L112.722704,38.8127376 L112.722704,38.8127376 C112.722704,60.2484208 95.3335831,77.6254753 73.8830156,77.6254753 L40.2998267,77.6254753 L23.3622184,95.4268061 L23.3622184,74.1235741 C22.9973282,73.8455384 22.595071,73.6052303 22.1554467,73.4026494 L22.1554463,73.4026506 C8.64997139,67.1792703 1.82131833e-15,53.6746108 0,38.8127376 L0,38.8127376 L0,38.8127376 C-2.62693687e-15,17.3770545 17.3891206,3.23589232e-14 38.839688,2.84204084e-14 Z" id="Rectangle-126" fill="url(#linearGradient-17)"/><ellipse id="Oval-15" fill="#FFF" cx="33.875" cy="39.105" rx="5.256" ry="5.253"/><ellipse id="Oval-15-Copy" fill="#FFF" cx="54.317" cy="39.105" rx="5.256" ry="5.253"/><ellipse id="Oval-15-Copy-2" fill="#FFF" cx="71.839" cy="39.105" rx="5.256" ry="5.253"/></g><path d="M55.7772964,76.4581749 L57.237435,80.5437262 L75.0511265,79.960076 C78.7449958,79.6940658 81.7466945,79.2941172 84.1920564,78.7510803 C89.4928036,77.5739541 94.9759361,74.7333695 100.365154,70.5446644 C106.51215,65.7669845 110.640096,60.0559773 113.139001,53.7236794 C114.849039,49.3903954 115.531035,45.7996291 115.928228,41.3012361 C116.536419,34.2106523 116.560148,29.8222856 114.47487,25.2378565 L110.543535,25.2378565 C112.351959,29.2136302 112.997376,34.4655201 112.437077,40.9978052 C112.067274,45.1859417 111.441914,48.4785146 109.879003,52.4389757 C107.60325,58.2057995 103.847906,63.4013132 98.2137019,67.7804306 C93.2052184,71.6732151 88.1746389,74.2793504 83.4318604,75.3325699 C81.1842316,75.8316965 78.3666633,76.2083569 74.9866912,76.4581749 L55.7772964,76.4581749 Z" id="Shadow" fill-opacity=".09" fill="#000"/></g></g></g></g></g></svg>