<svg width="90" height="100" viewBox="0 0 90 100" version="1.1" xmlns="http://www.w3.org/2000/svg" xmlns:xlink="http://www.w3.org/1999/xlink"><title>Distribution Graphic</title><desc>Created with Sketch.</desc><defs><linearGradient x1="99.128%" y1="49.51%" x2="43.329%" y2="50%" id="linearGradient-1"><stop stop-color="#000" stop-opacity=".3" offset="0%"/><stop stop-color="#000" stop-opacity=".3" offset="100%"/><stop stop-color="#000" stop-opacity="0" offset="100%"/></linearGradient></defs><g id="Responsive" stroke="none" stroke-width="1" fill="none" fill-rule="evenodd"><g id="Web-Home" transform="translate(-1075.000000, -683.000000)"><g id="Features" transform="translate(150.000000, 683.000000)"><g id="Bootstrapping-&amp;-Distribution" transform="translate(800.000000, 0.000000)"><g id="Distribution-Graphic" transform="translate(125.000000, 0.000000)"><path d="M19.6323529,6.3876652 C20.6069731,6.3876652 21.3970588,5.59873965 21.3970588,4.62555066 C21.3970588,3.65236167 20.6069731,2.86343612 19.6323529,2.86343612 C18.6577328,2.86343612 17.8676471,3.65236167 17.8676471,4.62555066 C17.8676471,5.59873965 18.6577328,6.3876652 19.6323529,6.3876652 Z M77.2224701,5.83394533 L56.5808824,5.83394533 C56.0326585,5.83394533 55.5882353,6.27771595 55.5882353,6.82513475 L55.5882353,36.5638767 L53.6029412,36.5638767 L53.6029412,6.82513475 C53.6029412,5.18287834 54.9362109,3.85156647 56.5808824,3.85156647 L77.0198098,3.85156647 C77.2925468,1.6799686 79.1483255,0 81.3970588,0 C83.8336092,0 85.8088235,1.97231388 85.8088235,4.40528634 C85.8088235,6.83825881 83.8336092,8.81057269 81.3970588,8.81057269 C79.4612983,8.81057269 77.8167233,7.56568975 77.2224701,5.83394533 L77.2224701,5.83394533 Z M80.1853879,76.8202065 L80.1853879,73.3480176 C80.1853879,72.8005988 79.7409647,72.3568282 79.1927408,72.3568282 L65.625,72.3568282 L65.625,70.3744493 L79.1927408,70.3744493 C80.8374123,70.3744493 82.170682,71.7057612 82.170682,73.3480176 L82.170682,76.7194868 C84.2383464,77.0846722 85.8088235,78.8878375 85.8088235,81.0572687 C85.8088235,83.4902412 83.8336092,85.4625551 81.3970588,85.4625551 C78.9605085,85.4625551 76.9852941,83.4902412 76.9852941,81.0572687 C76.9852941,79.0438785 78.3379762,77.3459602 80.1853879,76.8202065 Z M70.5892379,44.1345995 C68.6859051,43.6459139 67.2794118,41.9208885 67.2794118,39.8678414 C67.2794118,37.4348689 69.2546261,35.4625551 71.6911765,35.4625551 C74.1277268,35.4625551 76.1029412,37.4348689 76.1029412,39.8678414 C76.1029412,41.9987281 74.5877739,43.7762483 72.574532,44.1848027 L72.574532,61.784141 C72.574532,63.4263974 71.2412623,64.7577093 69.5965908,64.7577093 L65.5147059,64.7577093 L65.5147059,62.7753304 L69.5965908,62.7753304 C70.1448147,62.7753304 70.5892379,62.3315598 70.5892379,61.784141 L70.5892379,44.1345995 Z M23.9319966,3.63436123 L37.0588235,3.63436123 C38.703495,3.63436123 40.0367647,4.9656731 40.0367647,6.60792952 L40.0367647,26.6519824 L38.0514706,26.6519824 L38.0514706,6.60792952 C38.0514706,6.06051071 37.6070474,5.61674009 37.0588235,5.61674009 L23.9319966,5.61674009 C23.4816712,7.57239989 21.7275807,9.030837 19.6323529,9.030837 C17.1958026,9.030837 15.2205882,7.05852313 15.2205882,4.62555066 C15.2205882,2.19257819 17.1958026,0.220264317 19.6323529,0.220264317 C21.7275807,0.220264317 23.4816712,1.67870144 23.9319966,3.63436123 Z M23.9557086,18.0608985 L27.1323529,18.0608985 C28.6551969,18.0608985 29.8897059,19.2935946 29.8897059,20.8142024 L29.8897059,26.6519824 L27.9044118,26.6519824 L27.9044118,20.8142024 C27.9044118,20.3884323 27.5587493,20.0432773 27.1323529,20.0432773 L23.9053276,20.0432773 C23.4158447,21.9437008 21.6883379,23.3480176 19.6323529,23.3480176 C17.1958026,23.3480176 15.2205882,21.3757037 15.2205882,18.9427313 C15.2205882,16.5097588 17.1958026,14.5374449 19.6323529,14.5374449 C21.7664532,14.5374449 23.5466406,16.0505005 23.9557086,18.0608985 Z M81.3970588,6.16740088 C82.371679,6.16740088 83.1617647,5.37847533 83.1617647,4.40528634 C83.1617647,3.43209736 82.371679,2.64317181 81.3970588,2.64317181 C80.4224387,2.64317181 79.6323529,3.43209736 79.6323529,4.40528634 C79.6323529,5.37847533 80.4224387,6.16740088 81.3970588,6.16740088 Z M81.3970588,82.8193833 C82.371679,82.8193833 83.1617647,82.0304577 83.1617647,81.0572687 C83.1617647,80.0840797 82.371679,79.2951542 81.3970588,79.2951542 C80.4224387,79.2951542 79.6323529,80.0840797 79.6323529,81.0572687 C79.6323529,82.0304577 80.4224387,82.8193833 81.3970588,82.8193833 Z M71.6911765,41.6299559 C72.6657966,41.6299559 73.4558824,40.8410304 73.4558824,39.8678414 C73.4558824,38.8946524 72.6657966,38.1057269 71.6911765,38.1057269 C70.7165563,38.1057269 69.9264706,38.8946524 69.9264706,39.8678414 C69.9264706,40.8410304 70.7165563,41.6299559 71.6911765,41.6299559 Z M19.6323529,20.7048458 C20.6069731,20.7048458 21.3970588,19.9159203 21.3970588,18.9427313 C21.3970588,17.9695423 20.6069731,17.1806167 19.6323529,17.1806167 C18.6577328,17.1806167 17.8676471,17.9695423 17.8676471,18.9427313 C17.8676471,19.9159203 18.6577328,20.7048458 19.6323529,20.7048458 Z" id="Combined-Shape" fill="#37CCFF" fill-rule="nonzero"/><path d="M80.4044118,34.3171743 C76.0066209,33.8755561 72.5735294,30.1685066 72.5735294,25.660793 C72.5735294,20.8556723 76.4745777,16.9603524 81.2867647,16.9603524 C86.0989517,16.9603524 90,20.8556723 90,25.660793 C90,30.0928568 86.6811719,33.7509051 82.3897059,34.2921928 L82.3897059,54.1852855 C82.3897059,55.8275419 81.0564362,57.1588538 79.4117647,57.1588538 L65.5147059,57.1588538 L65.5147059,55.1764749 L79.4117647,55.1764749 C79.9599885,55.1764749 80.4044118,54.7327043 80.4044118,54.1852855 L80.4044118,34.3171743 Z M79.1053033,24.6385316 C78.6378125,24.1461132 77.859914,24.126154 77.3678183,24.5939515 C76.8757227,25.061749 76.8557766,25.8401578 77.3232674,26.3325762 L79.2881706,28.402252 C79.8406597,28.984201 80.7599944,29.0077892 81.3415619,28.4549376 C81.3550045,28.442049 81.3550045,28.442049 81.3682249,28.4289325 L85.2282696,24.5663558 C85.7082205,24.0860901 85.7082205,23.3074254 85.2282696,22.8271597 C84.7483187,22.3468939 83.9701645,22.3468939 83.4902135,22.8271597 L80.3596568,25.9597698 L79.1053033,24.6385316 Z" id="Combined-Shape" fill="#16A8FE"/><g id="Paper" transform="translate(19.411765, 26.211454)"><path d="M2.86343612,0.220264317 L26.0294118,0.220264317 L46.3235294,20.4845815 L46.3235294,60.7929515 L46.3235294,60.7929515 C46.3235294,62.3743836 45.0415254,63.6563877 43.4600933,63.6563877 L2.86343612,63.6563877 L2.86343612,63.6563877 C1.28200402,63.6563877 -1.58268726e-15,62.3743836 -1.77635684e-15,60.7929515 L0,3.08370044 L-4.4408921e-16,3.08370044 C-6.37758786e-16,1.50226834 1.28200402,0.220264317 2.86343612,0.220264317 Z" id="Rectangle-143" fill="#7574BB"/><path d="M25.8088235,0 L46.3235294,20.4845815 L29.9938456,20.4845815 L29.9938456,20.4845815 C27.6825217,20.4845815 25.8088235,18.6108833 25.8088235,16.2995595 L25.8088235,0 Z" id="Rectangle-144" fill="#9199BC"/><rect id="Rectangle-146" fill="#FFF" x="11.029" y="28.414" width="24.265" height="6.167"/><rect id="Rectangle-146-Copy" fill="#FFF" x="11.029" y="37.885" width="24.265" height="6.167"/><rect id="Rectangle-146-Copy-2" fill="#FFF" x="11.029" y="47.357" width="13.897" height="6.167"/><path d="M30.8823529,20.4845815 L46.3235294,20.4845815 L46.3235294,23.5682819 L32.6444675,23.5682819 L32.6444675,23.5682819 C31.6712785,23.5682819 30.8823529,22.7793564 30.8823529,21.8061674 L30.8823529,20.4845815 Z" id="Rectangle-145" fill-opacity=".25" fill="#000"/></g><g id="Clock" transform="translate(0.000000, 53.083700)"><rect id="Rectangle-149" fill="#14A6FF" transform="translate(5.790441, 13.882858) rotate(-45.000000) translate(-5.790441, -13.882858)" x="3.641" y="12.524" width="4.298" height="2.717"/><rect id="Rectangle-150" fill="#34C9FF" transform="translate(3.505786, 11.739362) rotate(-45.000000) translate(-3.505786, -11.739362)" x=".583" y="9.707" width="5.846" height="4.064"/><path d="M24.2647059,6.96714424 L24.2647059,4.18502203 L26.4705882,4.18502203 L26.4705882,0 L18.0882353,0 L18.0882353,4.18502203 L20.2941176,4.18502203 L20.2941176,6.89881703 C10.5306637,7.73612445 2.86764706,15.9150082 2.86764706,25.8810573 C2.86764706,36.4036632 11.4104491,44.9339207 21.9485294,44.9339207 C32.4866097,44.9339207 41.0294118,36.4036632 41.0294118,25.8810573 C41.0294118,16.1413013 33.7104432,8.10847188 24.2647059,6.96714424 Z" id="Combined-Shape" fill="url(#linearGradient-1)"/><rect id="Rectangle-147" fill="#14A6FF" x="17.868" y="5.947" width="3.971" height="3.524"/><rect id="Rectangle-148" fill="#34C9FF" x="15.662" y="1.982" width="8.382" height="4.185"/><ellipse id="Oval-23" fill="#34C9FF" cx="19.522" cy="27.863" rx="19.081" ry="19.053"/><ellipse id="Oval-24" fill="#FFF" cx="19.522" cy="27.863" rx="14.669" ry="14.648"/><rect id="Rectangle-152" fill="#89BFFB" x="29.559" y="26.872" width="3.309" height="1.982"/><rect id="Rectangle-152-Copy" fill="#89BFFB" x="6.176" y="26.872" width="3.309" height="1.982"/><rect id="Rectangle-151" fill="#89BFFB" x="18.529" y="37.885" width="1.985" height="3.304"/><path d="M19.6323529,24.2290749 L19.6323529,13.6563877 C22.4943526,13.8946864 24.700235,14.4453472 26.25,15.30837 C27.799765,16.1713929 29.5277062,17.7866646 31.4338235,20.154185 L21.2867647,24.7797357 L19.6323529,24.2290749 Z" id="Path-43" fill="#FFC14B"/><ellipse id="Oval-24" stroke="#FFF" stroke-width="1.322" cx="19.522" cy="27.863" rx="14.008" ry="13.987"/><ellipse id="Oval-24" fill="#FFF" cx="19.632" cy="27.974" rx="4.632" ry="4.626"/><path d="M20.8263916,26.3896708 C20.4940962,26.1395064 20.0805707,25.9911894 19.6323529,25.9911894 C18.5359053,25.9911894 17.6470588,26.8787307 17.6470588,27.9735683 C17.6470588,29.0684059 18.5359053,29.9559471 19.6323529,29.9559471 C20.6469158,29.9559471 21.4837276,29.1960224 21.6030585,28.2151103 L31.6297511,23.5869358 C32.1273786,23.3572383 32.3443049,22.7682172 32.1142696,22.2713205 C31.8842342,21.7744237 31.2943469,21.557816 30.7967195,21.7875135 L20.8263916,26.3896708 L20.8263916,26.3896708 Z" id="Combined-Shape" fill="#F97A6D"/></g></g></g></g></g></g></svg>